<svg width="113" height="41" viewBox="0 0 113 41" fill="none" xmlns="http://www.w3.org/2000/svg">
<path d="M26.37 28H21.39V20.14C21.39 18.43 20.55 17.59 18.81 17.59H16.41V28H11.43V17.59H6.51V28H1.47V13.03H18.93C23.85 13.03 26.37 15.64 26.37 20.17V28ZM31.7414 33.22H29.7014V28.9H31.2914C32.5514 28.9 33.2414 28.3 33.6614 27.55L26.4614 13.03H31.5314L35.9714 22.63L40.5314 13.03H45.6314L37.3214 29.47C36.0314 32.05 34.6214 33.22 31.7414 33.22ZM50.7734 28H45.7634V20.17C45.7634 15.64 48.3434 13.03 53.2334 13.03H57.4334V17.59H53.3534C51.6434 17.59 50.7734 18.43 50.7734 20.14V28ZM76.7006 28H70.9406L65.8106 21.73C65.5106 21.31 65.3306 20.95 65.3306 20.5V20.14C65.3306 19.75 65.4806 19.27 65.7806 18.88L70.7606 13.03H76.4006L70.4006 20.29L76.7006 28ZM64.3706 28H59.3606V6.97H64.3706V28Z" fill="#FBFBFB"/>
<path d="M87.615 28H85.875C85.125 28 84.555 27.61 84.165 26.89L77.145 13.03H82.245L86.745 22.3L91.215 13.03H96.345L89.265 26.89C88.905 27.61 88.335 28 87.615 28Z" fill="#F967E1"/>
<path d="M102.26 13L104 13C104.75 13 105.32 13.39 105.71 14.11L112.73 27.97L107.63 27.97L103.13 18.7L98.66 27.97L93.53 27.97L100.61 14.11C100.97 13.39 101.54 13 102.26 13Z" fill="#FBFBFB"/>
</svg>
