<svg width="57" height="37" viewBox="0 0 57 37" fill="none" xmlns="http://www.w3.org/2000/svg">
<g clip-path="url(#clip0_215_594)">
<path d="M30.0571 19.5109H28.1316V15.3076H29.6324C30.8217 15.3076 31.473 14.7237 31.8695 13.994L25.0732 -0.133957H29.8589L34.0499 9.20686L38.3542 -0.133957H43.1681L35.3242 15.8622C34.1065 18.3725 32.7756 19.5109 30.0571 19.5109Z" fill="#FBFBFB"/>
<path d="M23.5353 13.5108L27.6282 11.199L23.8813 4.56547C21.7135 0.727668 18.3934 -0.313652 14.3499 1.97034L0 10.0758L7.16362 22.7583L11.3058 20.4185L6.32433 11.5993L10.3679 9.31526L15.3495 18.1345L19.4423 15.8227L14.4608 7.00342L16.4333 5.88925C17.8634 5.08149 18.9557 5.40322 19.774 6.8519L23.5353 13.5108Z" fill="#FBFBFB"/>
</g>
<path d="M12.1464 36.7805H7.41748V29.1619C7.41748 24.7542 9.85281 22.2147 14.4685 22.2147H18.4328V26.6516H14.5819C12.9677 26.6516 12.1464 27.4689 12.1464 29.1327V36.7805ZM36.6197 36.7805H31.1826L26.3405 30.6798C26.057 30.2711 25.8872 29.9209 25.8872 29.483V29.1327C25.8872 28.7532 26.029 28.2862 26.3121 27.9067L31.0128 22.2147H36.3366L30.6728 29.2787L36.6197 36.7805ZM24.981 36.7805H20.2523V16.3183H24.981V36.7805Z" fill="#FBFBFB"/>
<path d="M38.8372 21.2842L37.8068 20.005C37.3627 19.4537 37.3208 18.7968 37.6356 18.0708L43.981 4.45053L47.0009 8.19953L42.6411 17.1655L52.3122 14.7932L55.35 18.5643L40.6552 21.8195C39.8966 21.9945 39.2635 21.8134 38.8372 21.2842Z" fill="#F967E1"/>
<path d="M46.8109 22.2527H48.4535C49.1615 22.2527 49.6997 22.6321 50.0677 23.3327L56.6941 36.8185H51.8801L47.6322 27.7988L43.4128 36.8185H38.5708L45.2537 23.3327C45.5936 22.6321 46.1314 22.2527 46.8109 22.2527Z" fill="#FBFBFB"/>
<defs>
<clipPath id="clip0_215_594">
<rect width="43.0218" height="25.2197" fill="white"/>
</clipPath>
</defs>
</svg>
