<svg width="73" height="47" viewBox="0 0 73 47" fill="none" xmlns="http://www.w3.org/2000/svg">
<rect width="73" height="47" rx="4" fill="#252525"/>
<rect width="53.9992" height="35.069" transform="translate(10 6)" fill="#252525"/>
<g clip-path="url(#clip0_413_770)">
<path d="M38.6289 24.5838H36.7948V20.5802H38.2244C39.3572 20.5802 39.9775 20.0241 40.3551 19.3291L33.8818 5.87238H38.4401L42.432 14.7694L46.5317 5.87238H51.117L43.6457 21.1084C42.4859 23.4995 41.2182 24.5838 38.6289 24.5838Z" fill="#FBFBFB"/>
<path d="M32.417 18.8689L36.3154 16.6668L32.7466 10.3486C30.6818 6.6931 27.5195 5.70126 23.668 7.87673L10 15.597L16.8232 27.6769L20.7687 25.4484L16.0238 17.0481L19.8753 14.8726L24.6201 23.2729L28.5185 21.0709L23.7737 12.6707L25.6525 11.6094C27.0146 10.8401 28.055 11.1465 28.8344 12.5263L32.417 18.8689Z" fill="#FBFBFB"/>
</g>
<path d="M21.5687 41.0329H17.0645V33.7763C17.0645 29.578 19.3841 27.1592 23.7805 27.1592H27.5564V31.3852H23.8884C22.351 31.3852 21.5687 32.1637 21.5687 33.7485V41.0329ZM44.8791 41.0329H39.7003L35.0884 35.222C34.8183 34.8328 34.6566 34.4992 34.6566 34.0821V33.7485C34.6566 33.387 34.7916 32.9422 35.0613 32.5807L39.5386 27.1592H44.6095L39.2148 33.8875L44.8791 41.0329ZM33.7935 41.0329H29.2894V21.543H33.7935V41.0329Z" fill="#FBFBFB"/>
<path d="M46.9903 26.2728L46.0089 25.0544C45.5858 24.5293 45.546 23.9037 45.8458 23.2121L51.8896 10.239L54.7661 13.8099L50.6135 22.3498L59.8251 20.0902L62.7185 23.6822L48.7219 26.7827C47.9994 26.9494 47.3964 26.7769 46.9903 26.2728Z" fill="#F967E1"/>
<path d="M54.5849 27.1953H56.1495C56.8238 27.1953 57.3364 27.5567 57.6869 28.2239L63.9985 41.069H59.4132L55.3672 32.4778L51.3483 41.069H46.7363L53.1016 28.2239C53.4255 27.5567 53.9377 27.1953 54.5849 27.1953Z" fill="#FBFBFB"/>
<defs>
<clipPath id="clip0_413_770">
<rect width="40.9776" height="24.0214" fill="white" transform="translate(10 6)"/>
</clipPath>
</defs>
</svg>
